<svg xmlns="http://www.w3.org/2000/svg"  viewBox="0 0 64 64" width="64px" height="64px"><path style="fill:#f5f5f5;" d="M58,32c0,14.359-11.641,26-26,26S6,46.359,6,32C6,17.641,17.641,6,32,6S58,17.641,58,32z M45.581,23.785	c-1.845-2.961-4.678-5.273-7.941-6.478l-1.404,3.746c2.416,0.931,4.501,2.685,5.835,4.888c1.348,2.2,1.873,4.846,1.57,7.394	c-0.305,2.544-1.501,4.95-3.319,6.747c-1.814,1.799-4.221,2.973-6.745,3.261c-2.532,0.311-5.136-0.242-7.295-1.55	c-2.165-1.297-3.882-3.329-4.769-5.669c-0.903-2.326-0.991-4.98-0.245-7.35c0.48-1.56,1.321-3.001,2.415-4.212l3.145,3.493	l2.75-12.047l-12.281,1.462l3.057,3.395c-1.732,1.844-3.042,4.08-3.751,6.511c-1.017,3.433-0.833,7.176,0.502,10.485	c1.318,3.313,3.775,6.125,6.837,7.899c3.059,1.793,6.717,2.5,10.2,2.024c3.501-0.449,6.815-2.125,9.27-4.632	c2.466-2.498,4.068-5.84,4.438-9.33C48.226,30.353,47.446,26.742,45.581,23.785z"/></svg>